<svg width="26" height="26" viewBox="0 0 26 26" fill="none" xmlns="http://www.w3.org/2000/svg">
<path d="M26 13C26 5.8203 20.1797 1.90735e-06 13 1.90735e-06C5.82031 1.90735e-06 0 5.8203 0 13C0 19.0967 4.19718 24.2123 9.85951 25.6172V16.9726H7.17881V13H9.85951V11.2882C9.85951 6.86342 11.8619 4.81255 16.206 4.81255C17.0296 4.81255 18.4507 4.97401 19.0321 5.13552V8.73672C18.7252 8.70443 18.1923 8.68826 17.5302 8.68826C15.3986 8.68826 14.5749 9.49571 14.5749 11.5951V13H18.8212L18.0917 16.9726H14.5749V25.9048C21.0118 25.1273 26 19.6465 26 13Z" fill="#0866FF"/>
<path d="M18.0917 16.9726L18.8212 13H14.5749V11.595C14.5749 9.49568 15.3985 8.68828 17.5302 8.68828C18.1923 8.68828 18.7252 8.7044 19.032 8.73669V5.13554C18.4507 4.97402 17.0295 4.81251 16.206 4.81251C11.8619 4.81251 9.85948 6.86344 9.85948 11.2882V13H7.17877V16.9726H9.85948V25.6172C10.8653 25.8667 11.917 26 13 26C13.5332 26 14.0586 25.9671 14.5749 25.9048V16.9726H18.0917Z" fill="white"/>
</svg>
