<svg width="20" height="14" viewBox="0 0 20 14" fill="none" xmlns="http://www.w3.org/2000/svg">
<path d="M17.557 0.211151H2.44296C1.09597 0.211151 0 1.30712 0 2.65411V11.3459C0 12.6929 1.09597 13.7889 2.44296 13.7889H17.557C18.904 13.7889 20 12.6929 20 11.3459V2.65437C20.0003 1.30712 18.9043 0.211151 17.557 0.211151ZM16.3633 1.8049L10 5.90457L3.63668 1.8049H16.3633ZM17.557 12.1954H2.44296C1.97466 12.1954 1.59375 11.8142 1.59375 11.3462V2.69953L9.50833 7.78891C9.51895 7.79555 9.53037 7.80007 9.54126 7.80618C9.55269 7.81255 9.56437 7.81866 9.57606 7.82451C9.63742 7.85611 9.70064 7.88162 9.76519 7.89835C9.77183 7.90021 9.77847 7.90101 9.78511 7.9026C9.85603 7.91933 9.92775 7.92969 9.99947 7.92969H10C10.0005 7.92969 10.0011 7.92969 10.0011 7.92969C10.0728 7.92969 10.1445 7.9196 10.2154 7.9026C10.2221 7.90101 10.2287 7.90021 10.2353 7.89835C10.2999 7.88162 10.3628 7.85611 10.4245 7.82451C10.4362 7.81866 10.4478 7.81255 10.4593 7.80618C10.4702 7.80007 10.4816 7.79555 10.4922 7.78891L18.4068 2.69953V11.3459C18.4065 11.8142 18.0253 12.1954 17.557 12.1954Z" fill="white"/>
</svg>
